<?xml version="1.0" encoding="utf-8"?>
<!DOCTYPE svg PUBLIC "-//W3C//DTD SVG 1.1//EN" "http://www.w3.org/Graphics/SVG/1.1/DTD/svg11.dtd">
<svg version="1.1" id="Livello_1" xmlns="http://www.w3.org/2000/svg" xmlns:xlink="http://www.w3.org/1999/xlink" x="0px" y="0px"
	 width="625.64px" height="294.961px" viewBox="0 0 625.64 294.961" style="enable-background:new 0 0 625.64 294.961;"
	 xml:space="preserve">
<style type="text/css">
<![CDATA[
	.st0{opacity:0.4;}
	.st1{fill:#FFFFFF;}
	.st2{clip-path:url(#SVGID_2_);fill:#FFFFFF;}
	.st3{clip-path:url(#SVGID_4_);fill:#FFFFFF;}
]]>
</style>
<polygon class="st1" points="328.407,131.713 289.803,131.713 289.803,142.25 303.558,142.25 303.558,187.663 314.697,187.663 
	314.672,142.256 328.418,142.256 "/>
<path class="st1" d="M352.832,188.549h11.136v-26.296c0.375-7.881,7.207-6.016,8.096-3.404l4.819-13.335
	c-0.842-0.045-9.872-1.538-12.868,5.316l-0.047-5.221h-11.136V188.549z"/>
<path class="st1" d="M376.321,145.513l0.048,43.036h11.136v-28.021c0-3.497,2.199-4.663,4.306-4.663
	c2.105,0,4.258,1.727,4.258,4.663v28.021h11.229v-28.021c0-2.984,1.731-4.709,4.306-4.709c2.573,0,4.211,1.818,4.211,4.709
	l0.047,28.021h11.137v-33.942c0.14-4.384-3.791-9.093-10.106-9.093c-5.288,0-8.563,3.452-10.062,6.109
	c-0.422-0.654-2.059-6.109-9.684-6.109c-4.541,0-7.208,1.679-9.642,5.27v-5.27H376.321z"/>
<rect x="464.806" y="131.526" class="st1" width="11.558" height="56.929"/>
<rect x="332.29" y="131.712" class="st1" width="129.614" height="1.725"/>
<rect x="332.29" y="134.65" class="st1" width="129.614" height="1.725"/>
<rect x="332.29" y="137.587" class="st1" width="129.614" height="1.679"/>
<rect x="332.29" y="140.619" class="st1" width="129.614" height="1.679"/>
<rect x="289.99" y="145.747" class="st1" width="1.731" height="41.748"/>
<rect x="292.984" y="145.747" class="st1" width="1.731" height="41.748"/>
<rect x="295.98" y="145.747" class="st1" width="1.685" height="41.748"/>
<rect x="298.973" y="145.747" class="st1" width="1.731" height="41.748"/>
<path class="st1" d="M354.141,169.712l-26.016,0.094c0,4.384,2.246,9.698,7.627,8.953c5.24-0.7,6.784-4.85,7.86-7.694l9.405,4.01
	c-0.843,2.844-6.129,12.915-17.266,13.475c-25.502,1.306-25.409-43.781,0.234-44.201
	C346.281,144.255,354.001,152.974,354.141,169.712 M335.331,153.44c-5.942,0-7.205,8.765-7.205,8.765h14.084
	C342.209,162.205,341.226,153.44,335.331,153.44"/>
<path class="st1" d="M426.296,177.918c1.028,11.797,16.097,15.713,23.77,6.295v4.29h14.132c-1.029-0.887-1.826-1.679-2.294-2.658
	l-0.047-25.504c0-21.587-32.38-19.349-35.094-1.213l12.306-0.046c1.919-13.242,22.228,0.886,2.34,2.425
	C434.859,161.973,425.5,168.361,426.296,177.918 M450.066,167.242c3.416,13.939-10.715,15.666-11.698,9.185
	C437.245,168.966,445.901,171.297,450.066,167.242"/>
<path class="st1" d="M274.75,152.478c-1.042-5.274-2.669-9.82-4.878-13.626c-0.323-0.548-0.678-1.065-1.018-1.595
	c-4.701-7.306-11.04-12.957-19.048-16.903c-1.96-0.966-4.006-1.807-6.12-2.553c-7.148-2.522-15.165-3.799-24.068-3.799
	c-13.254,0-25.069,2.759-35.439,8.282c-10.371,5.522-20.155,14.301-29.36,26.329c-4.664-11.661-11.478-20.345-20.433-26.051
	c-8.962-5.706-20.25-8.56-33.877-8.56c-13.744,0-25.677,2.794-35.799,8.376c-10.128,5.588-19.179,14.449-27.158,26.602v-28.537
	h-0.007v0.311c-0.525-0.021-1.041-0.079-1.572-0.079c-3.623,0-7.115,0.529-10.435,1.468c-8.643,2.445-16.029,7.837-21.026,15.031
	c-1.842,2.652-3.379,5.532-4.512,8.612v149.175h39.949v-79.525c0-15.835,0.485-26.696,1.468-32.586s2.699-10.862,5.156-14.911
	c3.806-6.257,8.956-11.164,15.467-14.727c6.499-3.559,13.679-5.339,21.534-5.339c12.763,0,21.754,4.173,26.969,12.519
	c5.214,8.346,7.825,23.322,7.825,44.916v89.653h40.316v-79.525c0-25.039,3.345-42.554,10.034-52.558
	c6.688-10.003,17.882-15.005,33.597-15.005c12.763,0,21.63,3.717,26.602,11.14c4.966,7.423,7.453,22.86,7.453,46.295v89.653h39.949
	v-105.85v-13.992C276.319,165.305,275.792,157.752,274.75,152.478"/>
<path class="st1" d="M141.909,0C31.577,3.427,4.635,85.306,0,111.48c10.551-11.428,23.592-20.491,38.259-26.346
	c7.765-19.672,31.49-57.602,100.152-64.252c92.036-8.915,137.92,87.502,137.92,87.502S258.912,5.126,141.909,0"/>
<path class="st1" d="M241.275,78.846c-20.812-25.608-56.211-42.423-93.979-41.296c-36.333,1.085-65.515,18.467-79.12,43.467
	c-0.59,1.085-1.195,2.163-1.725,3.276c-1.944,4.073-3.51,8.318-4.609,12.724c0.414-0.645,0.872-1.265,1.309-1.898
	c13.715-22.222,38.921-37.283,69.711-38.302c32.203-1.066,62.517,13.513,82.165,36.357c2.74-0.27,5.522-0.459,8.403-0.459
	c8.904,0,16.92,1.277,24.069,3.799c2.113,0.745,4.16,1.587,6.12,2.553c0.413,0.203,0.772,0.464,1.177,0.677
	C252.051,93.382,247.081,85.278,241.275,78.846"/>
<path class="st1" d="M176.546,101.214c5.535-2.948,11.659-4.769,18.363-5.478c-12.507-13.835-30.592-22.531-50.711-22.531
	c-14.822,0-28.52,4.745-39.716,12.762c22.538,1.202,41.963,14.127,52.167,32.866C162.905,110.861,169.53,104.95,176.546,101.214"/>
<path class="st1" d="M104.481,85.967C97.065,91.277,90.736,98.01,85.944,105.8c2.13-1.735,4.328-3.259,6.613-4.52
	c7.116-3.924,15.505-5.888,25.168-5.888c9.579,0,17.515,2.006,23.815,6.017c6.296,4.012,11.086,10.117,14.365,18.314
	c0.244-0.318,0.498-0.579,0.743-0.891C146.444,100.094,127.019,87.169,104.481,85.967"/>
<g class="st0">
	<g>
		<defs>
			<rect id="SVGID_1_" x="85.945" y="85.967" width="70.703" height="33.756"/>
		</defs>
		<use xlink:href="#SVGID_1_"  style="overflow:visible;fill:#FFFFFF;"/>
		<clipPath id="SVGID_2_">
			<use xlink:href="#SVGID_1_"  style="overflow:visible;"/>
		</clipPath>
		<path class="st2" d="M104.481,85.967C97.065,91.277,90.736,98.01,85.944,105.8c2.13-1.735,4.328-3.259,6.613-4.52
			c7.116-3.924,15.505-5.888,25.168-5.888c9.579,0,17.515,2.006,23.815,6.017c6.296,4.012,11.086,10.117,14.365,18.314
			c0.244-0.318,0.498-0.579,0.743-0.891C146.444,100.094,127.019,87.169,104.481,85.967"/>
	</g>
</g>
<path class="st1" d="M320.604,234.546c0,7.171-6.583,12.226-14.753,12.226c-1.529,0-3.233,0.06-16.048,0v-41.675h17.517v0.058
	c6.054,0.235,10.874,4.879,10.874,10.581c0,3.233-1.587,6.172-4.055,8.112C318.077,226.198,320.604,230.137,320.604,234.546
	 M301.5,214.03v6.995c2.821,0,5.172-1.117,5.172-3.232c0-2.058-2.351-3.469-5.172-3.469V214.03z M308.143,233.37
	c0-2.234-2.469-3.351-5.525-3.351c-0.412,0-0.765,0-1.117,0.059v6.524C304.851,236.896,308.143,235.662,308.143,233.37"/>
<path class="st1" d="M324.976,226.42c0-11.238,9.121-20.739,20.359-20.739c11.292,0,20.413,9.501,20.413,20.739
	s-9.121,20.413-20.413,20.413C334.097,246.833,324.976,237.658,324.976,226.42 M335.834,226.42c0,5.267,4.289,9.555,9.501,9.555
	c5.266,0,9.555-4.288,9.555-9.555c0-5.266-4.289-9.881-9.555-9.881C340.124,216.539,335.834,221.154,335.834,226.42"/>
<polygon class="st1" points="390.719,235.016 390.719,246.771 370.381,246.771 370.381,205.331 382.137,205.331 382.137,235.016 "/>
<path class="st1" d="M394.017,226.421c0-11.322,9.189-20.895,20.512-20.895c11.378,0,20.567,9.572,20.567,20.895
	c0,11.323-9.189,20.567-20.567,20.567C403.207,246.988,394.017,237.744,394.017,226.421 M404.957,226.421
	c0,5.307,4.321,9.627,9.572,9.627c5.306,0,9.627-4.32,9.627-9.627c0-5.306-4.321-9.955-9.627-9.955
	C409.278,216.466,404.957,221.115,404.957,226.421"/>
<path class="st1" d="M460.832,224.215h16.006v11.039h-4.968v9.217c-5.133,2.595-8.721,2.704-11.425,2.704
	c-11.039,0-20.532-9.659-20.532-21.083c0-10.597,8.334-20.753,19.814-20.753c11.701,0,18.49,9.107,18.766,9.493l-8.886,6.568h0.056
	c-0.166-0.165-3.92-5.022-9.936-5.022c-6.071,0-8.775,5.686-8.775,9.714c0,5.243,4.194,9.935,9.88,10.045V224.215z"/>
<path class="st1" d="M551.291,240.671h-12.31l-2.857,6.102h-11.926l20.499-41.438l21.377,41.438h-11.979L551.291,240.671z
	 M546.895,230.23l-2.198-5.111l-2.253,5.111H546.895z"/>
<polygon class="st1" points="494.45,229.49 512.962,246.771 520.078,246.771 520.078,205.339 508.322,205.339 508.205,224.082 
	487.969,205.339 482.694,205.339 482.694,246.771 494.45,246.771 "/>
<path class="st1" d="M298.375,294.777l2.612-5.579l0.563-1.199h1.325h13.68h1.337l0.559,1.215l2.557,5.563h8.556l-20.297-39.342
	l-19.463,39.342H298.375z M304.815,277.639l2.504-5.68l1.932-4.38l1.892,4.396l2.443,5.68l1.251,2.909h-3.167h-4.946h-3.198
	L304.815,277.639z"/>
<path class="st1" d="M349.966,255.891h-12.085v38.888h8.046v-6.588v-6.667l3.798,5.479c3.331,4.808,8.946,7.027,14.188,7.769
	l2.713-5.472c-0.976-0.232-2.016-0.262-3.058-0.742c-2.648-1.254-3.854-2.562-3.983-2.707l-2.302-2.589l3.366-0.821
	c1.602-0.391,7.265-4.197,7.265-11.899C367.914,260.42,358.9,255.891,349.966,255.891 M350.221,279.153
	c-0.905,0-1.831-0.124-2.749-0.37l-1.545-0.414v-1.6v-9.955v-1.634l1.586-0.391c0.734-0.181,1.501-0.271,2.279-0.271h0.001
	c2.076,0,4.081,0.633,5.646,1.782c1.832,1.346,2.841,3.241,2.841,5.339C358.281,275.993,354.891,279.153,350.221,279.153"/>
<path class="st1" d="M380.802,294.777l2.612-5.579l0.563-1.199h1.325h13.68h1.337l0.558,1.215l2.558,5.563h8.556l-20.297-39.342
	l-19.463,39.342H380.802z M387.243,277.639l2.504-5.68l1.932-4.38l1.892,4.396l2.443,5.68l1.251,2.909h-3.167h-4.946h-3.198
	L387.243,277.639z"/>
<polygon class="st1" points="420.559,264.241 420.559,266.326 420.559,294.778 428.849,294.778 428.849,266.326 428.849,264.241 
	430.933,264.241 436.666,264.241 436.666,255.891 412.619,255.891 412.619,264.241 418.474,264.241 "/>
<polygon class="st1" points="455.245,271.342 453.16,271.342 453.16,269.257 453.16,255.891 445.115,255.891 445.115,294.839 
	453.16,294.839 453.16,281.473 453.16,279.387 455.245,279.387 465.994,279.387 468.079,279.387 468.079,281.473 468.079,294.839 
	476.124,294.839 476.124,255.891 468.079,255.891 468.079,269.257 468.079,271.342 465.994,271.342 "/>
<g>
	<defs>
		<path id="SVGID_3_" d="M492.057,275.536c0-6.615,5.408-12.205,11.81-12.205c6.432,0,11.865,5.59,11.865,12.205
			c0,6.543-5.322,11.865-11.865,11.865C497.355,287.401,492.057,282.079,492.057,275.536 M484.618,275.536
			c0,10.645,8.635,19.305,19.249,19.305c10.645,0,19.304-8.66,19.304-19.305c0-10.832-8.659-19.644-19.304-19.644
			C493.433,255.893,484.618,264.889,484.618,275.536"/>
	</defs>
	<use xlink:href="#SVGID_3_"  style="overflow:visible;fill:#FFFFFF;"/>
	<clipPath id="SVGID_4_">
		<use xlink:href="#SVGID_3_"  style="overflow:visible;"/>
	</clipPath>
	<rect x="484.618" y="255.893" class="st3" width="38.553" height="38.948"/>
</g>
<g>
	<polygon class="st1" points="539.506,278.907 539.506,274.109 543.013,277.383 561.647,294.778 566.134,294.778 566.134,255.89 
		558.075,255.89 557.967,273.301 557.937,278.033 554.466,274.818 534.032,255.89 531.461,255.89 531.461,294.778 539.506,294.778 	
		"/>
</g>
</svg>